<?xml version="1.0" encoding="iso-8859-1"?>
<!-- Uploaded to: SVG Repo, www.svgrepo.com, Generator: SVG Repo Mixer Tools -->
<svg version="1.1" id="Layer_1" xmlns="http://www.w3.org/2000/svg" xmlns:xlink="http://www.w3.org/1999/xlink" 
	 viewBox="0 0 511.998 511.998" xml:space="preserve">
<path style="fill:#3E3B43;" d="M176.483,28.788v17.66c0,1.483-1.202,2.686-2.686,2.686H123.53c-4.529,0-8.201-3.671-8.201-8.201
	v-3.484c0-4.21-3.444-7.654-7.654-7.654H91.442c-4.21,0-7.654,3.444-7.654,7.654v51.913c0,4.21,3.444,7.654,7.654,7.654h16.234
	c4.21,0,7.654-3.444,7.654-7.654v-3.484c0-4.529,3.671-8.201,8.201-8.201l50.3,0.605c1.471,0.017,2.653,1.215,2.653,2.686v17.054
	c0,2.047,1.66,3.707,3.707,3.707h27.892V78.623V49.134V25.081H180.19C178.142,25.081,176.483,26.741,176.483,28.788z"/>
<g>
	<rect x="236.522" y="119.21" style="fill:#ACAAB1;" width="38.964" height="211.836"/>
	<path style="fill:#ACAAB1;" d="M202.096,93.026v15.372c0,5.97,4.839,10.809,10.809,10.809h82.816
		c5.97,0,10.809-4.839,10.809-10.809V81.612c0-10.055,8.151-18.207,18.207-18.207h21.326c8.765,0,17.468,1.457,25.755,4.312
		l56.392,19.427l-29.432-44.255c-14.658-22.04-39.372-35.284-65.842-35.284h-26.404h-43.283h-50.343
		c-5.97,0-10.809,4.839-10.809,10.809v15.372V93.026z"/>
</g>
<path style="opacity:0.29;fill:#3E3B43;enable-background:new    ;" d="M412.242,63.135L363.78,46.441
	c-8.286-2.855-16.99-4.312-25.755-4.312H316.7c-10.055,0-18.207,8.151-18.207,18.207v26.786c0,5.97-4.839,10.809-10.809,10.809
	h-82.816c-0.96,0-1.886-0.137-2.772-0.372v10.84c0,5.97,4.839,10.809,10.809,10.809h82.816c5.97,0,10.809-4.839,10.809-10.809
	V81.613c0-10.055,8.151-18.207,18.207-18.207h21.326c8.765,0,17.468,1.457,25.755,4.312l56.392,19.427L412.242,63.135z"/>
<g>
	<rect x="236.522" y="153.225" style="fill:#FF5023;" width="38.964" height="38.75"/>
	<path style="fill:#FF5023;" d="M288.092,504.396h-64.81c-6.797,0-12.307-5.51-12.307-12.307l17.235-109.183
		c2.101-13.311,0.726-26.949-4.044-39.554c-2.53-6.684-4.056-18.74-0.883-18.74h64.81c3.173,0,1.646,12.056-0.883,18.74
		c-4.77,12.603-6.145,26.242-4.044,39.554L300.4,492.089C300.4,498.886,294.889,504.396,288.092,504.396z"/>
</g>
<path style="opacity:0.37;fill:#AB2300;enable-background:new    ;" d="M283.164,382.906c-2.102-13.311-0.726-26.949,4.044-39.554
	c2.53-6.684,4.056-18.74,0.883-18.74h-11.528c3.173,0,1.646,12.056-0.883,18.74c-4.77,12.603-18.839,27.291-16.738,40.603
	l29.928,108.133c0,6.797-5.51,12.307-12.307,12.307h11.528c6.797,0,12.307-5.51,12.307-12.307L283.164,382.906z"/>
<g>
	<rect x="236.522" y="119.21" style="opacity:0.35;fill:#3E3B43;enable-background:new    ;" width="38.964" height="50.33"/>
	<rect x="256.009" y="119.21" style="opacity:0.35;fill:#3E3B43;enable-background:new    ;" width="19.481" height="205.408"/>
</g>
<path d="M434.542,82.933l-29.432-44.255C389.002,14.459,362.02,0,332.935,0h-120.03c-9.838,0-17.873,7.761-18.365,17.477h-18.056
	c-4.199,0-7.604,3.404-7.604,7.604V41.53h-45.349c-0.33,0-0.597-0.268-0.597-0.597v-3.484c0-8.414-6.845-15.259-15.258-15.259
	H91.442c-8.413,0-15.258,6.845-15.258,15.259v51.913c0,8.413,6.845,15.258,15.258,15.258h16.234c8.413,0,15.258-6.845,15.258-15.258
	v-3.485c0-0.328,0.268-0.597,0.506-0.598l45.44,0.547v15.903c0,4.2,3.405,7.604,7.604,7.604h18.057
	c0.493,9.717,8.529,17.477,18.365,17.477h16.016v196.631h-5.639c-3.126,0-5.907,1.431-7.63,3.927
	c-3.077,4.454-1.881,9.999,1.402,18.673c4.283,11.316,5.543,23.652,3.645,35.677l-17.235,109.183
	c-0.062,0.392-0.093,0.788-0.093,1.185c0,10.979,8.932,19.911,19.911,19.911h64.81c10.979,0,19.911-8.932,19.911-19.911
	c0-0.397-0.031-0.793-0.093-1.185l-17.235-109.183c-1.898-12.024-0.638-24.361,3.645-35.676c3.283-8.676,4.478-14.22,1.402-18.674
	c-1.724-2.496-4.505-3.927-7.63-3.927h-5v-196.63h12.63c10.153,0,18.413-8.26,18.413-18.414V81.612
	c0-5.846,4.756-10.602,10.603-10.602h21.327c7.942,0,15.774,1.311,23.278,3.897l56.392,19.426c3.084,1.065,6.5,0.04,8.494-2.54
	C436.221,89.212,436.346,85.648,434.542,82.933z M194.492,94.127h-10.405V78.315c0-4.163-3.349-7.553-7.513-7.603l-53.044-0.639
	c-8.715,0-15.805,7.09-15.805,15.805l-0.05,3.533l-16.284-0.05l0.05-51.963l16.284,0.051v3.484c0,8.715,7.09,15.805,15.805,15.805
	h52.953c4.199,0,7.604-3.404,7.604-7.604V32.685h10.405L194.492,94.127L194.492,94.127z M292.773,492.546
	c-0.231,2.381-2.242,4.246-4.681,4.246h-64.81c-2.439,0-4.451-1.867-4.681-4.246l17.12-108.455
	c2.31-14.629,0.773-29.647-4.443-43.431c-0.28-0.739-0.524-1.407-0.738-2.008h5.985h38.964h5.346
	c-0.213,0.602-0.457,1.269-0.738,2.008c-5.216,13.782-6.752,28.801-4.443,43.431L292.773,492.546z M267.884,160.828v23.546h-23.756
	v-23.546H267.884z M244.128,145.62v-18.808h23.756v18.808H244.128z M267.884,199.582v123.862h-23.756V199.582H267.884z
	 M374.295,60.529c-9.102-3.137-18.6-4.727-28.232-4.727h-21.327c-14.232,0-25.811,11.578-25.811,25.81v26.786
	c0,1.767-1.438,3.206-3.205,3.206h-20.234h-38.964h-23.62c-1.767,0-3.205-1.439-3.205-3.206v-6.667v-76.65v-6.668
	c0-1.767,1.438-3.205,3.205-3.205h120.03c23.983,0,46.23,11.922,59.511,31.891l16.98,25.532L374.295,60.529z"/>
</svg>